<?xml version="1.0" encoding="UTF-8"?><svg id="Layer_2" xmlns="http://www.w3.org/2000/svg" viewBox="0 0 458.61 765.64"><defs><style>.cls-1{fill:#e8ded2;}.cls-2{fill:#b3b062;}.cls-3{fill:#e0a24a;}.cls-4{fill:#e2aec3;}</style></defs><g id="MENU"><g id="VOORKANT"><path class="cls-4" d="M0,532.69c136.04-16.16,272.07-32.32,408.11-48.47,3.77-.45,7.9-.81,11.04,1.31,4.49,3.04,4.72,9.46,4.4,14.87-4.37,72.22-26.42,145.79-75.47,198.98-49.05,53.19-128.44,81.61-196.72,57.69-44.47-15.57-79.92-51.06-103.61-91.79C24.06,624.55,10.98,578.6.2,532.72"/><path class="cls-3" d="M51.63,254.13c115.6,61.34,246.09,76.57,364.42,132.1,2.39,1.12,3.59,4.06,2.51,6.47-5.22,11.6-13.29,21.8-21.29,31.76-31.77,39.54-68.25,80.92-117.98,90.88-30.45,6.1-62.01-.64-91.61-10.03-36-11.42-71.26-27.14-100.02-51.63-28.76-24.48-50.63-58.56-54.82-96.1-3.93-35.13,7.51-69.95,18.8-103.45"/><path class="cls-1" d="M336.34,164.97c25.3-50.27,54.89-98.25,88.44-143.43,4.61-6.21,1.02-15.98-5.13-19.58-7.29-4.26-14.96-1.09-19.58,5.13-33.56,45.18-63.14,93.16-88.44,143.43-8.26,16.41,16.43,30.92,24.72,14.45h0Z"/><path class="cls-2" d="M442.35,93.83c4.53-.82,9.9-1.38,13.05,1.97,2.1,2.24,2.48,5.55,2.7,8.61,6.53,93.41-50.32,188.49-136.46,225.2-29.22,12.45-61.7,18.55-93.06,13.51-39.87-6.41-75.65-30.7-100.34-62.66-24.69-31.96-38.92-68.41-45.6-108.24l359.71-78.4Z"/></g></g></svg>